<svg width="100" height="100" viewBox="0 0 100 100" fill="none" xmlns="http://www.w3.org/2000/svg">
<g id="Frame">
<path id="Vector" d="M66.5909 34.7727C67.7273 33.4091 70 33.1818 71.3636 34.3182C72.7273 35.4545 72.9545 37.7273 71.8182 39.0909L49.0909 66.1364C47.9545 67.5 45.6818 67.7273 44.3182 66.5909L29.5455 54.3182C28.1818 53.1818 27.9545 50.9091 29.0909 49.5455C30.2273 48.1818 32.5 47.9545 33.8636 49.0909L46.1364 59.3182L66.5909 34.7727ZM50 100C22.2727 100 0 77.7273 0 50C0 22.2727 22.2727 0 50 0C77.7273 0 100 22.2727 100 50C100 77.7273 77.7273 100 50 100ZM50 95.4545C75 95.4545 95.4545 75 95.4545 50C95.4545 25 75 4.54545 50 4.54545C25 4.54545 4.54545 25 4.54545 50C4.54545 75 25 95.4545 50 95.4545Z" fill="#43E87A"/>
</g>
</svg>
