<svg width="30" height="30" viewBox="0 0 30 30" fill="none" xmlns="http://www.w3.org/2000/svg">
<g id="&#233;&#148;&#153;&#232;&#175;&#175; (1)">
<path id="&#232;&#183;&#175;&#229;&#190;&#132;" d="M20.9883 8C20.7295 8 20.4707 8.0986 20.2731 8.29612L8.29626 20.2739C7.90125 20.6689 7.90125 21.3092 8.29626 21.7039C8.49377 21.9014 8.75258 22 9.0114 22C9.27021 22 9.52903 21.9014 9.72654 21.7039L21.7037 9.72614C22.0988 9.33111 22.0988 8.69084 21.7037 8.29612C21.5059 8.0986 21.2471 8 20.9883 8Z" fill="#515151"/>
<path id="&#232;&#183;&#175;&#229;&#190;&#132;_2" d="M9.0114 8C8.75258 8 8.49377 8.0986 8.29626 8.29612C7.90125 8.69115 7.90125 9.33142 8.29626 9.72614L20.2735 21.7039C20.471 21.9014 20.7298 22 20.9886 22C21.2474 22 21.5062 21.9014 21.7037 21.7039C22.0988 21.3088 22.0988 20.6686 21.7037 20.2739L9.72622 8.29612C9.52871 8.0986 9.2699 8 9.0114 8Z" fill="#515151"/>
<path id="&#229;&#189;&#162;&#231;&#138;&#182;" fill-rule="evenodd" clip-rule="evenodd" d="M0 15C0 6.7157 6.7157 0 15 0C23.2843 0 30 6.7157 30 15C30 23.2843 23.2843 30 15 30C6.7157 30 0 23.2843 0 15ZM20.0001 3.1611C18.4177 2.49182 16.7354 2.15247 15 2.15247C13.2646 2.15247 11.5823 2.49182 9.99955 3.16143C8.46995 3.80818 7.09574 4.73509 5.91525 5.91558C4.73475 7.09608 3.80818 8.47029 3.1611 9.99989C2.49182 11.5823 2.15247 13.2646 2.15247 15C2.15247 16.7354 2.49182 18.4177 3.16143 20.0004C3.80818 21.53 4.73509 22.9043 5.91558 24.0848C7.09608 25.2652 8.47029 26.1918 9.99989 26.8389C11.5823 27.5082 13.2646 27.8475 15 27.8475C16.7354 27.8475 18.4177 27.5082 20.0004 26.8386C21.53 26.1918 22.9043 25.2649 24.0848 24.0844C25.2652 22.9039 26.1918 21.5297 26.8389 20.0001C27.5082 18.4177 27.8475 16.7354 27.8475 15C27.8475 13.2646 27.5082 11.5823 26.8386 9.99955C26.1918 8.46995 25.2649 7.09574 24.0844 5.91525C22.9039 4.73475 21.5297 3.80818 20.0001 3.1611Z" fill="#515151"/>
</g>
</svg>
