<svg width="24" height="24" viewBox="0 0 24 24" fill="none" xmlns="http://www.w3.org/2000/svg">
<path id="&#232;&#129;&#148;&#229;&#144;&#136; 4" d="M0 12C0 8.8174 1.26427 5.76557 3.51471 3.51514C5.76515 1.2647 8.8174 0 12 0C15.1826 0 18.2348 1.2647 20.4853 3.51514C22.7357 5.76557 24 8.8174 24 12C24 15.1826 22.7357 18.2349 20.4853 20.4854C18.2348 22.7358 15.1826 24 12 24C8.8174 24 5.76515 22.7358 3.51471 20.4854C1.26427 18.2349 0 15.1826 0 12ZM14.54 15.8843L15.25 16.7842C15.9201 16.7901 16.5826 16.6419 17.1861 16.3506C17.7896 16.0592 18.3179 15.6324 18.73 15.104C18.6919 12.7827 18.1422 10.4985 17.12 8.41406C16.1789 7.72285 15.0639 7.30762 13.9 7.21436L13.73 7.3833C14.7529 7.69079 15.7112 8.18186 16.558 8.83301C15.1586 8.07408 13.5909 7.67905 11.999 7.68408C10.4071 7.67931 8.83949 8.07432 7.44 8.83301C8.28746 8.18184 9.24643 7.69078 10.27 7.3833L10.1 7.21436C8.93604 7.30762 7.82107 7.72285 6.87997 8.41406C5.85716 10.4983 5.30741 12.7826 5.26999 15.104C5.68212 15.6324 6.21041 16.0592 6.8139 16.3506C7.4174 16.6419 8.07989 16.7901 8.75 16.7842L9.45999 15.8843C8.64589 15.6641 7.9284 15.179 7.42099 14.5054C8.8015 15.3418 10.3849 15.7836 11.999 15.7832C13.6134 15.7834 15.197 15.3416 16.578 14.5054C16.0719 15.1781 15.3563 15.6631 14.544 15.8843H14.54ZM12.94 12.7432C12.9325 12.5836 12.9565 12.4242 13.0107 12.2739C13.0649 12.1237 13.1483 11.9857 13.2559 11.8677C13.3636 11.7497 13.4935 11.6541 13.6382 11.5864C13.7828 11.5187 13.9394 11.4802 14.099 11.4731C14.2592 11.4797 14.4166 11.5176 14.5621 11.585C14.7076 11.6523 14.8384 11.7478 14.947 11.8657C15.0557 11.9837 15.14 12.1219 15.1953 12.2725C15.2505 12.423 15.2756 12.583 15.269 12.7432C15.2807 13.0663 15.1643 13.3808 14.9452 13.6187C14.7261 13.8565 14.422 13.9984 14.099 14.0132C13.7787 13.9946 13.4785 13.8512 13.2628 13.6138C13.047 13.3763 12.9329 13.0637 12.945 12.7432H12.94ZM8.76999 12.7432C8.76247 12.5836 8.78648 12.4242 8.8407 12.2739C8.89491 12.1237 8.97824 11.9857 9.08591 11.8677C9.19357 11.7497 9.32347 11.6541 9.46814 11.5864C9.61281 11.5187 9.76942 11.4802 9.92899 11.4731C10.0895 11.4788 10.2473 11.5164 10.3932 11.5835C10.5392 11.6506 10.6704 11.7456 10.7792 11.8638C10.888 11.9819 10.9723 12.1205 11.0272 12.2715C11.0821 12.4224 11.1065 12.5827 11.099 12.7432C11.1107 13.0663 10.9943 13.3808 10.7752 13.6187C10.5561 13.8565 10.252 13.9984 9.92899 14.0132C9.60872 13.9946 9.30852 13.8512 9.09277 13.6138C8.87703 13.3763 8.76294 13.0637 8.77499 12.7432H8.76999Z" fill="white"/>
</svg>
