<svg width="48" height="48" viewBox="0 0 48 48" fill="none" xmlns="http://www.w3.org/2000/svg">
<path id="&#232;&#129;&#148;&#229;&#144;&#136; 4" d="M0 24C0 17.6348 2.52855 11.5311 7.02942 7.03027C11.5303 2.5294 17.6348 0 24 0C30.3652 0 36.4696 2.5294 40.9705 7.03027C45.4714 11.5311 48 17.6348 48 24C48 30.3652 45.4714 36.4698 40.9705 40.9707C36.4696 45.4716 30.3652 48 24 48C17.6348 48 11.5303 45.4716 7.02942 40.9707C2.52855 36.4698 0 30.3652 0 24ZM29.08 31.7686L30.5 33.5684C31.8402 33.5803 33.1651 33.2839 34.3721 32.7012C35.5791 32.1185 36.6357 31.2649 37.46 30.208C37.3837 25.5655 36.2843 20.997 34.24 16.8281C32.3578 15.4457 30.1279 14.6152 27.8 14.4287L27.46 14.7666C29.5058 15.3816 31.4225 16.3637 33.116 17.666C30.3172 16.1482 27.1819 15.3581 23.998 15.3682C20.8142 15.3586 17.679 16.1486 14.88 17.666C16.5749 16.3637 18.4929 15.3816 20.54 14.7666L20.2 14.4287C17.8721 14.6152 15.6421 15.4457 13.7599 16.8281C11.7143 20.9966 10.6148 25.5653 10.54 30.208C11.3642 31.2649 12.4208 32.1185 13.6278 32.7012C14.8348 33.2839 16.1598 33.5803 17.5 33.5684L18.92 31.7686C17.2918 31.3283 15.8568 30.358 14.842 29.0107C17.603 30.6836 20.7697 31.5673 23.998 31.5664C27.2268 31.5668 30.3941 30.6832 33.156 29.0107C32.1437 30.3561 30.7125 31.3263 29.088 31.7686H29.08ZM25.88 25.4863C25.865 25.1672 25.913 24.8483 26.0214 24.5479C26.1299 24.2474 26.2965 23.9713 26.5118 23.7354C26.7272 23.4994 26.987 23.3082 27.2763 23.1729C27.5656 23.0375 27.8789 22.9604 28.198 22.9463C28.5184 22.9594 28.8331 23.0352 29.1241 23.1699C29.4152 23.3047 29.6768 23.4956 29.894 23.7314C30.1113 23.9673 30.28 24.2439 30.3905 24.5449C30.501 24.846 30.5511 25.1659 30.538 25.4863C30.5613 26.1326 30.3286 26.7617 29.8904 27.2373C29.4523 27.7129 28.844 27.9967 28.198 28.0264C27.5575 27.9891 26.957 27.7024 26.5255 27.2275C26.094 26.7527 25.8658 26.1275 25.89 25.4863H25.88ZM17.54 25.4863C17.5249 25.1672 17.573 24.8483 17.6814 24.5479C17.7898 24.2474 17.9565 23.9713 18.1718 23.7354C18.3871 23.4994 18.6469 23.3082 18.9363 23.1729C19.2256 23.0375 19.5388 22.9604 19.858 22.9463C20.179 22.9576 20.4946 23.0329 20.7864 23.167C21.0783 23.3011 21.3407 23.4913 21.5583 23.7275C21.776 23.9638 21.9446 24.2411 22.0544 24.543C22.1642 24.8448 22.213 25.1655 22.198 25.4863C22.2213 26.1326 21.9886 26.7617 21.5504 27.2373C21.1122 27.7129 20.504 27.9967 19.858 28.0264C19.2174 27.9891 18.617 27.7024 18.1855 27.2275C17.7541 26.7527 17.5259 26.1275 17.55 25.4863H17.54Z" fill="#43E87A"/>
</svg>
