<svg width="24" height="24" viewBox="0 0 24 24" fill="none" xmlns="http://www.w3.org/2000/svg">
<path id="&#232;&#183;&#175;&#229;&#190;&#132; 1620" d="M15.924 17.5L17.891 8.219C18.065 7.4 17.596 7.081 17.06 7.281L5.491 11.745C4.701 12.052 4.714 12.495 5.357 12.696L8.317 13.62L15.19 9.294C15.511 9.08 15.807 9.201 15.565 9.415L10.006 14.436L9.792 17.491C9.90788 17.4914 10.0223 17.4651 10.1263 17.4141C10.2304 17.3631 10.3213 17.2888 10.392 17.197L11.837 15.8L14.837 18.01C15.386 18.318 15.775 18.157 15.921 17.501L15.924 17.5ZM24 12C24 14.3734 23.2962 16.6935 21.9776 18.6668C20.6591 20.6402 18.7849 22.1783 16.5922 23.0865C14.3995 23.9948 11.9867 24.2324 9.65892 23.7694C7.33115 23.3064 5.19295 22.1635 3.51472 20.4853C1.83649 18.807 0.693605 16.6689 0.230582 14.3411C-0.232441 12.0133 0.00519943 9.60051 0.913451 7.4078C1.8217 5.21508 3.35977 3.34094 5.33316 2.02236C7.30655 0.703788 9.62663 0 12 0C15.1826 0 18.2348 1.26428 20.4853 3.51472C22.7357 5.76515 24 8.8174 24 12Z" fill="white"/>
</svg>
