<svg width="48" height="48" viewBox="0 0 48 48" fill="none" xmlns="http://www.w3.org/2000/svg">
<path id="&#232;&#183;&#175;&#229;&#190;&#132; 1620" d="M31.848 35L35.782 16.438C36.13 14.8 35.192 14.162 34.12 14.562L10.982 23.49C9.40201 24.104 9.42801 24.99 10.714 25.392L16.634 27.24L30.38 18.588C31.022 18.16 31.614 18.402 31.13 18.83L20.012 28.872L19.584 34.982C19.8158 34.9828 20.0446 34.9301 20.2527 34.8282C20.4608 34.7262 20.6426 34.5776 20.784 34.394L23.674 31.6L29.674 36.02C30.772 36.636 31.55 36.314 31.842 35.002L31.848 35ZM48 24C48 28.7467 46.5924 33.3869 43.9553 37.3337C41.3181 41.2805 37.5698 44.3566 33.1844 46.1731C28.799 47.9896 23.9734 48.4649 19.3178 47.5388C14.6623 46.6128 10.3859 44.327 7.02945 40.9706C3.67299 37.6141 1.38721 33.3377 0.461164 28.6822C-0.464881 24.0266 0.0103989 19.201 1.8269 14.8156C3.6434 10.4302 6.71954 6.68188 10.6663 4.04473C14.6131 1.40758 19.2533 0 24 0C30.3652 0 36.4697 2.52856 40.9706 7.02944C45.4714 11.5303 48 17.6348 48 24Z" fill="#43E87A"/>
</svg>
