<svg width="24" height="24" viewBox="0 0 24 24" fill="none" xmlns="http://www.w3.org/2000/svg">
<path id="&#232;&#183;&#175;&#229;&#190;&#132; 1618" d="M12 0C9.62663 0 7.30655 0.703792 5.33317 2.02237C3.35978 3.34095 1.8217 5.21508 0.913451 7.4078C0.00519943 9.60051 -0.232441 12.0133 0.230582 14.3411C0.693604 16.6689 1.83649 18.807 3.51472 20.4853C5.19295 22.1635 7.33115 23.3064 9.65892 23.7694C11.9867 24.2324 14.3995 23.9948 16.5922 23.0865C18.7849 22.1783 20.6591 20.6402 21.9776 18.6668C23.2962 16.6935 24 14.3734 24 12C24 8.8174 22.7357 5.76515 20.4853 3.51472C18.2348 1.26428 15.1826 0 12 0ZM19.365 8.32C19.1497 8.50843 18.945 8.70874 18.752 8.92C18.7999 10.8538 18.2861 12.7601 17.273 14.408C16.5395 15.5774 15.5416 16.5582 14.3595 17.2712C13.1775 17.9842 11.8445 18.4096 10.468 18.513C8.72389 18.7222 6.95749 18.3939 5.405 17.572C6.14812 17.5301 6.88312 17.3957 7.59301 17.172C8.32587 16.8454 9.02516 16.4482 9.681 15.986C8.83278 15.7387 8.03129 15.3528 7.309 14.844C6.99451 14.5705 6.72962 14.2447 6.52601 13.881H8.25C7.38698 13.4225 6.60084 12.8321 5.92 12.131C5.61215 11.683 5.41289 11.1694 5.338 10.631L6.65101 11.165C6.06551 10.3665 5.64188 9.46116 5.404 8.5C5.28673 7.89557 5.3565 7.26976 5.60401 6.706C6.33591 7.69638 7.32943 8.46308 8.473 8.92C9.77415 9.59348 11.2088 9.96922 12.673 10.02H12.734C12.5313 9.31794 12.5739 8.56776 12.8548 7.89316C13.1356 7.21855 13.638 6.65978 14.279 6.309C14.9155 5.98904 15.6409 5.89191 16.3391 6.03315C17.0373 6.17439 17.6679 6.54582 18.13 7.088C18.13 7.088 18.53 6.979 18.83 6.869C19.13 6.759 19.556 6.563 19.556 6.563L18.856 7.823L19.941 7.705C19.7725 7.9228 19.5833 8.12374 19.376 8.305L19.365 8.32Z" fill="white"/>
</svg>
