<svg width="48" height="48" viewBox="0 0 48 48" fill="none" xmlns="http://www.w3.org/2000/svg">
<path id="&#232;&#183;&#175;&#229;&#190;&#132; 1618" d="M24 0C19.2533 0 14.6131 1.40758 10.6663 4.04474C6.71955 6.68189 3.6434 10.4302 1.8269 14.8156C0.0103989 19.201 -0.464881 24.0266 0.461164 28.6822C1.38721 33.3377 3.67299 37.6141 7.02944 40.9706C10.3859 44.327 14.6623 46.6128 19.3178 47.5388C23.9734 48.4649 28.799 47.9896 33.1844 46.1731C37.5698 44.3566 41.3181 41.2805 43.9553 37.3337C46.5924 33.3869 48 28.7467 48 24C48 17.6348 45.4714 11.5303 40.9706 7.02943C36.4697 2.52856 30.3652 0 24 0ZM38.73 16.64C38.2993 17.0169 37.89 17.4175 37.504 17.84C37.5997 21.7077 36.5723 25.5202 34.546 28.816C33.079 31.1549 31.0831 33.1163 28.7191 34.5424C26.3551 35.9685 23.6891 36.8192 20.936 37.026C17.4478 37.4443 13.915 36.7877 10.81 35.144C12.2962 35.0602 13.7662 34.7914 15.186 34.344C16.6517 33.6908 18.0503 32.8964 19.362 31.972C17.6656 31.4774 16.0626 30.7057 14.618 29.688C13.989 29.1409 13.4592 28.4894 13.052 27.762H16.5C14.774 26.845 13.2017 25.6641 11.84 24.262C11.2243 23.366 10.8258 22.3388 10.676 21.262L13.302 22.33C12.131 20.733 11.2838 18.9223 10.808 17C10.5735 15.7911 10.713 14.5395 11.208 13.412C12.6718 15.3928 14.6589 16.9262 16.946 17.84C19.5483 19.187 22.4175 19.9384 25.346 20.04H25.468C25.0626 18.6359 25.1478 17.1355 25.7095 15.7863C26.2712 14.4371 27.2759 13.3196 28.558 12.618C29.8309 11.9781 31.2817 11.7838 32.6782 12.0663C34.0746 12.3488 35.3359 13.0916 36.26 14.176C36.26 14.176 37.06 13.958 37.66 13.738C38.26 13.518 39.112 13.126 39.112 13.126L37.712 15.646L39.882 15.41C39.545 15.8456 39.1666 16.2475 38.752 16.61L38.73 16.64Z" fill="#43E87A"/>
</svg>
