<svg width="14" height="13" viewBox="0 0 14 13" fill="none" xmlns="http://www.w3.org/2000/svg">
<path id="xmark" d="M1.1639 11.3301C0.84749 11.6465 0.832423 12.2115 1.17143 12.543C1.5029 12.8745 2.06791 12.867 2.38432 12.5505L6.99481 7.93252L11.6128 12.5505C11.9368 12.8745 12.4943 12.8745 12.8257 12.543C13.1497 12.204 13.1572 11.6541 12.8257 11.3301L8.21524 6.7121L12.8257 2.10161C13.1572 1.77767 13.1572 1.22019 12.8257 0.888715C12.4867 0.564775 11.9368 0.557242 11.6128 0.881181L6.99481 5.49921L2.38432 0.881181C2.06791 0.564775 1.49537 0.549708 1.17143 0.888715C0.839957 1.22019 0.84749 1.7852 1.1639 2.10161L5.78192 6.7121L1.1639 11.3301Z" fill="white"/>
</svg>
