<svg width="117" height="48" viewBox="0 0 117 48" fill="none" xmlns="http://www.w3.org/2000/svg">
<g id="Frame 1">
<g id="Frame 26">
<g id="Group 7795">
<g id="Mask group" filter="url(#filter0_d_240_1428)">
<mask id="mask0_240_1428" style="mask-type:alpha" maskUnits="userSpaceOnUse" x="6" y="6" width="36" height="37">
<g id="Group 7794">
<path id="&#232;&#183;&#175;&#229;&#190;&#132;" fill-rule="evenodd" clip-rule="evenodd" d="M14.792 9.22162C14.792 9.65151 15.1405 10 15.5704 10H17.0136C17.4435 10 17.792 9.65151 17.792 9.22162V7.77838C17.792 7.34849 17.4435 7 17.0136 7H15.5704C15.1405 7 14.792 7.34849 14.792 7.77838V9.22162Z" fill="white" stroke="#00AA5B" stroke-width="0.0648649"/>
<path id="&#232;&#183;&#175;&#229;&#190;&#132;_2" fill-rule="evenodd" clip-rule="evenodd" d="M18.792 9.22162C18.792 9.65151 19.1405 10 19.5704 10H21.0136C21.4435 10 21.792 9.65151 21.792 9.22162V7.77838C21.792 7.34849 21.4435 7 21.0136 7H19.5704C19.1405 7 18.792 7.34849 18.792 7.77838V9.22162Z" fill="white" stroke="#00AA5B" stroke-width="0.0648649"/>
<path id="&#232;&#183;&#175;&#229;&#190;&#132;_3" fill-rule="evenodd" clip-rule="evenodd" d="M22.792 9.22162C22.792 9.65151 23.1405 10 23.5704 10H25.0136C25.4435 10 25.792 9.65151 25.792 9.22162V7.77838C25.792 7.34849 25.4435 7 25.0136 7H23.5704C23.1405 7 22.792 7.34849 22.792 7.77838V9.22162Z" fill="white" stroke="#00AA5B" stroke-width="0.0648649"/>
<path id="&#232;&#183;&#175;&#229;&#190;&#132;_4" fill-rule="evenodd" clip-rule="evenodd" d="M26.792 9.22162C26.792 9.65151 27.1405 10 27.5704 10H29.0136C29.4435 10 29.792 9.65151 29.792 9.22162V7.77838C29.792 7.34849 29.4435 7 29.0136 7H27.5704C27.1405 7 26.792 7.34849 26.792 7.77838V9.22162Z" fill="white" stroke="#00AA5B" stroke-width="0.0648649"/>
<path id="&#232;&#183;&#175;&#229;&#190;&#132;_5" fill-rule="evenodd" clip-rule="evenodd" d="M30.792 9.22162C30.792 9.65151 31.1405 10 31.5704 10H33.0136C33.4435 10 33.792 9.65151 33.792 9.22162V7.77838C33.792 7.34849 33.4435 7 33.0136 7H31.5704C31.1405 7 30.792 7.34849 30.792 7.77838V9.22162Z" fill="white" stroke="#00AA5B" stroke-width="0.0648649"/>
<path id="&#232;&#183;&#175;&#229;&#190;&#132;_6" fill-rule="evenodd" clip-rule="evenodd" d="M10.792 13.2216C10.792 13.6515 11.1405 14 11.5704 14H13.0136C13.4435 14 13.792 13.6515 13.792 13.2216V11.7784C13.792 11.3485 13.4435 11 13.0136 11H11.5704C11.1405 11 10.792 11.3485 10.792 11.7784V13.2216Z" fill="white" stroke="#00AA5B" stroke-width="0.0648649"/>
<path id="&#232;&#183;&#175;&#229;&#190;&#132;_7" fill-rule="evenodd" clip-rule="evenodd" d="M22.792 13.2216C22.792 13.6515 23.1405 14 23.5704 14H25.0136C25.4435 14 25.792 13.6515 25.792 13.2216V11.7784C25.792 11.3485 25.4435 11 25.0136 11H23.5704C23.1405 11 22.792 11.3485 22.792 11.7784V13.2216Z" fill="white" stroke="#00AA5B" stroke-width="0.0648649"/>
<path id="&#232;&#183;&#175;&#229;&#190;&#132;_8" fill-rule="evenodd" clip-rule="evenodd" d="M18.792 17.2216C18.792 17.6515 19.1405 18 19.5704 18H21.0136C21.4435 18 21.792 17.6515 21.792 17.2216V15.7784C21.792 15.3485 21.4435 15 21.0136 15H19.5704C19.1405 15 18.792 15.3485 18.792 15.7784V17.2216Z" fill="white" stroke="#00AA5B" stroke-width="0.0648649"/>
<path id="&#232;&#183;&#175;&#229;&#190;&#132;_9" fill-rule="evenodd" clip-rule="evenodd" d="M18.792 13.2216C18.792 13.6515 19.1405 14 19.5704 14H21.0136C21.4435 14 21.792 13.6515 21.792 13.2216V11.7784C21.792 11.3485 21.4435 11 21.0136 11H19.5704C19.1405 11 18.792 11.3485 18.792 11.7784V13.2216Z" fill="white" stroke="#00AA5B" stroke-width="0.0648649"/>
<path id="&#232;&#183;&#175;&#229;&#190;&#132;_10" fill-rule="evenodd" clip-rule="evenodd" d="M14.792 17.2216C14.792 17.6515 15.1405 18 15.5704 18H17.0136C17.4435 18 17.792 17.6515 17.792 17.2216V15.7784C17.792 15.3485 17.4435 15 17.0136 15H15.5704C15.1405 15 14.792 15.3485 14.792 15.7784V17.2216Z" fill="white" stroke="#00AA5B" stroke-width="0.0648649"/>
<path id="&#232;&#183;&#175;&#229;&#190;&#132;_11" fill-rule="evenodd" clip-rule="evenodd" d="M22.792 17.2216C22.792 17.6515 23.1405 18 23.5704 18H25.0136C25.4435 18 25.792 17.6515 25.792 17.2216V15.7784C25.792 15.3485 25.4435 15 25.0136 15H23.5704C23.1405 15 22.792 15.3485 22.792 15.7784V17.2216Z" fill="white" stroke="#00AA5B" stroke-width="0.0648649"/>
<path id="&#232;&#183;&#175;&#229;&#190;&#132;_12" fill-rule="evenodd" clip-rule="evenodd" d="M26.792 17.2216C26.792 17.6515 27.1405 18 27.5704 18H29.0136C29.4435 18 29.792 17.6515 29.792 17.2216V15.7784C29.792 15.3485 29.4435 15 29.0136 15H27.5704C27.1405 15 26.792 15.3485 26.792 15.7784V17.2216Z" fill="white" stroke="#00AA5B" stroke-width="0.0648649"/>
<path id="&#232;&#183;&#175;&#229;&#190;&#132;_13" fill-rule="evenodd" clip-rule="evenodd" d="M26.792 13.2216C26.792 13.6515 27.1405 14 27.5704 14H29.0136C29.4435 14 29.792 13.6515 29.792 13.2216V11.7784C29.792 11.3485 29.4435 11 29.0136 11H27.5704C27.1405 11 26.792 11.3485 26.792 11.7784V13.2216Z" fill="white" stroke="#00AA5B" stroke-width="0.0648649"/>
<path id="&#232;&#183;&#175;&#229;&#190;&#132;_14" fill-rule="evenodd" clip-rule="evenodd" d="M30.792 17.2216C30.792 17.6515 31.1405 18 31.5704 18H33.0136C33.4435 18 33.792 17.6515 33.792 17.2216V15.7784C33.792 15.3485 33.4435 15 33.0136 15H31.5704C31.1405 15 30.792 15.3485 30.792 15.7784V17.2216Z" fill="white" stroke="#00AA5B" stroke-width="0.0648649"/>
<path id="&#232;&#183;&#175;&#229;&#190;&#132;_15" fill-rule="evenodd" clip-rule="evenodd" d="M18.792 21.2216C18.792 21.6515 19.1405 22 19.5704 22H21.0136C21.4435 22 21.792 21.6515 21.792 21.2216V19.7784C21.792 19.3485 21.4435 19 21.0136 19H19.5704C19.1405 19 18.792 19.3485 18.792 19.7784V21.2216Z" fill="white" stroke="#00AA5B" stroke-width="0.0648649"/>
<path id="&#232;&#183;&#175;&#229;&#190;&#132;_16" fill-rule="evenodd" clip-rule="evenodd" d="M14.792 21.2216C14.792 21.6515 15.1405 22 15.5704 22H17.0136C17.4435 22 17.792 21.6515 17.792 21.2216V19.7784C17.792 19.3485 17.4435 19 17.0136 19H15.5704C15.1405 19 14.792 19.3485 14.792 19.7784V21.2216Z" fill="white" stroke="#00AA5B" stroke-width="0.0648649"/>
<path id="&#232;&#183;&#175;&#229;&#190;&#132;_17" fill-rule="evenodd" clip-rule="evenodd" d="M14.792 29.2216C14.792 29.6515 15.1405 30 15.5704 30H17.0136C17.4435 30 17.792 29.6515 17.792 29.2216V27.7784C17.792 27.3485 17.4435 27 17.0136 27H15.5704C15.1405 27 14.792 27.3485 14.792 27.7784V29.2216Z" fill="white" stroke="#00AA5B" stroke-width="0.0648649"/>
<path id="&#232;&#183;&#175;&#229;&#190;&#132;_18" fill-rule="evenodd" clip-rule="evenodd" d="M22.792 21.2216C22.792 21.6515 23.1405 22 23.5704 22H25.0136C25.4435 22 25.792 21.6515 25.792 21.2216V19.7784C25.792 19.3485 25.4435 19 25.0136 19H23.5704C23.1405 19 22.792 19.3485 22.792 19.7784V21.2216Z" fill="white" stroke="#00AA5B" stroke-width="0.0648649"/>
<path id="&#232;&#183;&#175;&#229;&#190;&#132;_19" fill-rule="evenodd" clip-rule="evenodd" d="M26.792 21.2216C26.792 21.6515 27.1405 22 27.5704 22H29.0136C29.4435 22 29.792 21.6515 29.792 21.2216V19.7784C29.792 19.3485 29.4435 19 29.0136 19H27.5704C27.1405 19 26.792 19.3485 26.792 19.7784V21.2216Z" fill="white" stroke="#00AA5B" stroke-width="0.0648649"/>
<path id="&#232;&#183;&#175;&#229;&#190;&#132;_20" fill-rule="evenodd" clip-rule="evenodd" d="M30.792 21.2216C30.792 21.6515 31.1405 22 31.5704 22H33.0136C33.4435 22 33.792 21.6515 33.792 21.2216V19.7784C33.792 19.3485 33.4435 19 33.0136 19H31.5704C31.1405 19 30.792 19.3485 30.792 19.7784V21.2216Z" fill="white" stroke="#00AA5B" stroke-width="0.0648649"/>
<path id="&#232;&#183;&#175;&#229;&#190;&#132;_21" fill-rule="evenodd" clip-rule="evenodd" d="M30.792 29.2216C30.792 29.6515 31.1405 30 31.5704 30H33.0136C33.4435 30 33.792 29.6515 33.792 29.2216V27.7784C33.792 27.3485 33.4435 27 33.0136 27H31.5704C31.1405 27 30.792 27.3485 30.792 27.7784V29.2216Z" fill="white" stroke="#00AA5B" stroke-width="0.0648649"/>
<path id="&#232;&#183;&#175;&#229;&#190;&#132;_22" fill-rule="evenodd" clip-rule="evenodd" d="M22.792 25.2216C22.792 25.6515 23.1405 26 23.5704 26H25.0136C25.4435 26 25.792 25.6515 25.792 25.2216V23.7784C25.792 23.3485 25.4435 23 25.0136 23H23.5704C23.1405 23 22.792 23.3485 22.792 23.7784V25.2216Z" fill="white" stroke="#00AA5B" stroke-width="0.0648649"/>
<path id="&#232;&#183;&#175;&#229;&#190;&#132;_23" fill-rule="evenodd" clip-rule="evenodd" d="M18.792 29.2216C18.792 29.6515 19.1405 30 19.5704 30H21.0136C21.4435 30 21.792 29.6515 21.792 29.2216V27.7784C21.792 27.3485 21.4435 27 21.0136 27H19.5704C19.1405 27 18.792 27.3485 18.792 27.7784V29.2216Z" fill="white" stroke="#00AA5B" stroke-width="0.0648649"/>
<path id="&#232;&#183;&#175;&#229;&#190;&#132;_24" fill-rule="evenodd" clip-rule="evenodd" d="M18.792 25.2216C18.792 25.6515 19.1405 26 19.5704 26H21.0136C21.4435 26 21.792 25.6515 21.792 25.2216V23.7784C21.792 23.3485 21.4435 23 21.0136 23H19.5704C19.1405 23 18.792 23.3485 18.792 23.7784V25.2216Z" fill="white" stroke="#00AA5B" stroke-width="0.0648649"/>
<path id="&#232;&#183;&#175;&#229;&#190;&#132;_25" fill-rule="evenodd" clip-rule="evenodd" d="M22.792 29.2216C22.792 29.6515 23.1405 30 23.5704 30H25.0136C25.4435 30 25.792 29.6515 25.792 29.2216V27.7784C25.792 27.3485 25.4435 27 25.0136 27H23.5704C23.1405 27 22.792 27.3485 22.792 27.7784V29.2216Z" fill="white" stroke="#00AA5B" stroke-width="0.0648649"/>
<path id="&#232;&#183;&#175;&#229;&#190;&#132;_26" fill-rule="evenodd" clip-rule="evenodd" d="M26.792 29.2216C26.792 29.6515 27.1405 30 27.5704 30H29.0136C29.4435 30 29.792 29.6515 29.792 29.2216V27.7784C29.792 27.3485 29.4435 27 29.0136 27H27.5704C27.1405 27 26.792 27.3485 26.792 27.7784V29.2216Z" fill="white" stroke="#00AA5B" stroke-width="0.0648649"/>
<path id="&#232;&#183;&#175;&#229;&#190;&#132;_27" fill-rule="evenodd" clip-rule="evenodd" d="M26.792 25.2216C26.792 25.6515 27.1405 26 27.5704 26H29.0136C29.4435 26 29.792 25.6515 29.792 25.2216V23.7784C29.792 23.3485 29.4435 23 29.0136 23H27.5704C27.1405 23 26.792 23.3485 26.792 23.7784V25.2216Z" fill="white" stroke="#00AA5B" stroke-width="0.0648649"/>
<path id="&#232;&#183;&#175;&#229;&#190;&#132;_28" fill-rule="evenodd" clip-rule="evenodd" d="M14.792 33.2216C14.792 33.6515 15.1405 34 15.5704 34H17.0136C17.4435 34 17.792 33.6515 17.792 33.2216V31.7784C17.792 31.3485 17.4435 31 17.0136 31H15.5704C15.1405 31 14.792 31.3485 14.792 31.7784V33.2216Z" fill="white" stroke="#00AA5B" stroke-width="0.0648649"/>
<path id="&#232;&#183;&#175;&#229;&#190;&#132;_29" fill-rule="evenodd" clip-rule="evenodd" d="M10.792 33.2216C10.792 33.6515 11.1405 34 11.5704 34H13.0136C13.4435 34 13.792 33.6515 13.792 33.2216V31.7784C13.792 31.3485 13.4435 31 13.0136 31H11.5704C11.1405 31 10.792 31.3485 10.792 31.7784V33.2216Z" fill="white" stroke="#00AA5B" stroke-width="0.0648649"/>
<path id="&#232;&#183;&#175;&#229;&#190;&#132;_30" fill-rule="evenodd" clip-rule="evenodd" d="M18.792 33.2216C18.792 33.6515 19.1405 34 19.5704 34H21.0136C21.4435 34 21.792 33.6515 21.792 33.2216V31.7784C21.792 31.3485 21.4435 31 21.0136 31H19.5704C19.1405 31 18.792 31.3485 18.792 31.7784V33.2216Z" fill="white" stroke="#00AA5B" stroke-width="0.0648649"/>
<path id="&#232;&#183;&#175;&#229;&#190;&#132;_31" fill-rule="evenodd" clip-rule="evenodd" d="M22.792 33.2216C22.792 33.6515 23.1405 34 23.5704 34H25.0136C25.4435 34 25.792 33.6515 25.792 33.2216V31.7784C25.792 31.3485 25.4435 31 25.0136 31H23.5704C23.1405 31 22.792 31.3485 22.792 31.7784V33.2216Z" fill="white" stroke="#00AA5B" stroke-width="0.0648649"/>
<path id="&#232;&#183;&#175;&#229;&#190;&#132;_32" fill-rule="evenodd" clip-rule="evenodd" d="M26.792 33.2216C26.792 33.6515 27.1405 34 27.5704 34H29.0136C29.4435 34 29.792 33.6515 29.792 33.2216V31.7784C29.792 31.3485 29.4435 31 29.0136 31H27.5704C27.1405 31 26.792 31.3485 26.792 31.7784V33.2216Z" fill="white" stroke="#00AA5B" stroke-width="0.0648649"/>
<path id="&#232;&#183;&#175;&#229;&#190;&#132;_33" fill-rule="evenodd" clip-rule="evenodd" d="M30.792 33.2216C30.792 33.6515 31.1405 34 31.5704 34H33.0136C33.4435 34 33.792 33.6515 33.792 33.2216V31.7784C33.792 31.3485 33.4435 31 33.0136 31H31.5704C31.1405 31 30.792 31.3485 30.792 31.7784V33.2216Z" fill="white" stroke="#00AA5B" stroke-width="0.0648649"/>
<path id="&#232;&#183;&#175;&#229;&#190;&#132;_34" fill-rule="evenodd" clip-rule="evenodd" d="M34.792 33.2216C34.792 33.6515 35.1405 34 35.5704 34H37.0136C37.4435 34 37.792 33.6515 37.792 33.2216V31.7784C37.792 31.3485 37.4435 31 37.0136 31H35.5704C35.1405 31 34.792 31.3485 34.792 31.7784V33.2216Z" fill="white" stroke="#00AA5B" stroke-width="0.0648649"/>
<path id="&#232;&#183;&#175;&#229;&#190;&#132;_35" fill-rule="evenodd" clip-rule="evenodd" d="M34.792 13.2216C34.792 13.6515 35.1405 14 35.5704 14H37.0136C37.4435 14 37.792 13.6515 37.792 13.2216V11.7784C37.792 11.3485 37.4435 11 37.0136 11H35.5704C35.1405 11 34.792 11.3485 34.792 11.7784V13.2216Z" fill="white" stroke="#00AA5B" stroke-width="0.0648649"/>
<path id="&#232;&#183;&#175;&#229;&#190;&#132;_36" fill-rule="evenodd" clip-rule="evenodd" d="M14.792 37.2216C14.792 37.6515 15.1405 38 15.5704 38H17.0136C17.4435 38 17.792 37.6515 17.792 37.2216V35.7784C17.792 35.3485 17.4435 35 17.0136 35H15.5704C15.1405 35 14.792 35.3485 14.792 35.7784V37.2216Z" fill="white" stroke="#00AA5B" stroke-width="0.0648649"/>
<path id="&#232;&#183;&#175;&#229;&#190;&#132;_37" fill-rule="evenodd" clip-rule="evenodd" d="M14.792 41.2216C14.792 41.6515 15.1405 42 15.5704 42H17.0136C17.4435 42 17.792 41.6515 17.792 41.2216V39.7784C17.792 39.3485 17.4435 39 17.0136 39H15.5704C15.1405 39 14.792 39.3485 14.792 39.7784V41.2216Z" fill="white" stroke="#00AA5B" stroke-width="0.0648649"/>
<path id="&#232;&#183;&#175;&#229;&#190;&#132;_38" fill-rule="evenodd" clip-rule="evenodd" d="M18.792 37.2216C18.792 37.6515 19.1405 38 19.5704 38H21.0136C21.4435 38 21.792 37.6515 21.792 37.2216V35.7784C21.792 35.3485 21.4435 35 21.0136 35H19.5704C19.1405 35 18.792 35.3485 18.792 35.7784V37.2216Z" fill="white" stroke="#00AA5B" stroke-width="0.0648649"/>
<path id="&#232;&#183;&#175;&#229;&#190;&#132;_39" fill-rule="evenodd" clip-rule="evenodd" d="M18.792 41.2216C18.792 41.6515 19.1405 42 19.5704 42H21.0136C21.4435 42 21.792 41.6515 21.792 41.2216V39.7784C21.792 39.3485 21.4435 39 21.0136 39H19.5704C19.1405 39 18.792 39.3485 18.792 39.7784V41.2216Z" fill="white" stroke="#00AA5B" stroke-width="0.0648649"/>
<path id="&#232;&#183;&#175;&#229;&#190;&#132;_40" fill-rule="evenodd" clip-rule="evenodd" d="M22.792 37.2216C22.792 37.6515 23.1405 38 23.5704 38H25.0136C25.4435 38 25.792 37.6515 25.792 37.2216V35.7784C25.792 35.3485 25.4435 35 25.0136 35H23.5704C23.1405 35 22.792 35.3485 22.792 35.7784V37.2216Z" fill="white" stroke="#00AA5B" stroke-width="0.0648649"/>
<path id="&#232;&#183;&#175;&#229;&#190;&#132;_41" fill-rule="evenodd" clip-rule="evenodd" d="M22.792 41.2216C22.792 41.6515 23.1405 42 23.5704 42H25.0136C25.4435 42 25.792 41.6515 25.792 41.2216V39.7784C25.792 39.3485 25.4435 39 25.0136 39H23.5704C23.1405 39 22.792 39.3485 22.792 39.7784V41.2216Z" fill="white" stroke="#00AA5B" stroke-width="0.0648649"/>
<path id="&#232;&#183;&#175;&#229;&#190;&#132;_42" fill-rule="evenodd" clip-rule="evenodd" d="M26.792 37.2216C26.792 37.6515 27.1405 38 27.5704 38H29.0136C29.4435 38 29.792 37.6515 29.792 37.2216V35.7784C29.792 35.3485 29.4435 35 29.0136 35H27.5704C27.1405 35 26.792 35.3485 26.792 35.7784V37.2216Z" fill="white" stroke="#00AA5B" stroke-width="0.0648649"/>
<path id="&#232;&#183;&#175;&#229;&#190;&#132;_43" fill-rule="evenodd" clip-rule="evenodd" d="M26.792 41.2216C26.792 41.6515 27.1405 42 27.5704 42H29.0136C29.4435 42 29.792 41.6515 29.792 41.2216V39.7784C29.792 39.3485 29.4435 39 29.0136 39H27.5704C27.1405 39 26.792 39.3485 26.792 39.7784V41.2216Z" fill="white" stroke="#00AA5B" stroke-width="0.0648649"/>
<path id="&#232;&#183;&#175;&#229;&#190;&#132;_44" fill-rule="evenodd" clip-rule="evenodd" d="M30.792 37.2216C30.792 37.6515 31.1405 38 31.5704 38H33.0136C33.4435 38 33.792 37.6515 33.792 37.2216V35.7784C33.792 35.3485 33.4435 35 33.0136 35H31.5704C31.1405 35 30.792 35.3485 30.792 35.7784V37.2216Z" fill="white" stroke="#00AA5B" stroke-width="0.0648649"/>
<path id="&#232;&#183;&#175;&#229;&#190;&#132;_45" fill-rule="evenodd" clip-rule="evenodd" d="M30.792 41.2216C30.792 41.6515 31.1405 42 31.5704 42H33.0136C33.4435 42 33.792 41.6515 33.792 41.2216V39.7784C33.792 39.3485 33.4435 39 33.0136 39H31.5704C31.1405 39 30.792 39.3485 30.792 39.7784V41.2216Z" fill="white" stroke="#00AA5B" stroke-width="0.0648649"/>
<path id="&#232;&#183;&#175;&#229;&#190;&#132;_46" fill-rule="evenodd" clip-rule="evenodd" d="M34.792 37.2216C34.792 37.6515 35.1405 38 35.5704 38H37.0136C37.4435 38 37.792 37.6515 37.792 37.2216V35.7784C37.792 35.3485 37.4435 35 37.0136 35H35.5704C35.1405 35 34.792 35.3485 34.792 35.7784V37.2216Z" fill="white" stroke="#00AA5B" stroke-width="0.0648649"/>
<path id="&#232;&#183;&#175;&#229;&#190;&#132;_47" fill-rule="evenodd" clip-rule="evenodd" d="M9.01361 34C9.4435 34 9.79199 33.6515 9.79199 33.2216V31.7784C9.79199 31.3485 9.4435 31 9.01361 31H7.57037C7.14048 31 6.79199 31.3485 6.79199 31.7784V33.2216C6.79199 33.6515 7.14048 34 7.57037 34H9.01361Z" fill="white" stroke="#00AA5B" stroke-width="0.0648649"/>
<path id="&#232;&#183;&#175;&#229;&#190;&#132;_48" fill-rule="evenodd" clip-rule="evenodd" d="M9.01361 30C9.4435 30 9.79199 29.6515 9.79199 29.2216V27.7784C9.79199 27.3485 9.4435 27 9.01361 27H7.57037C7.14048 27 6.79199 27.3485 6.79199 27.7784V29.2216C6.79199 29.6515 7.14048 30 7.57037 30H9.01361Z" fill="white" stroke="#00AA5B" stroke-width="0.0648649"/>
<path id="&#232;&#183;&#175;&#229;&#190;&#132;_49" fill-rule="evenodd" clip-rule="evenodd" d="M9.01361 26C9.4435 26 9.79199 25.6515 9.79199 25.2216V23.7784C9.79199 23.3485 9.4435 23 9.01361 23H7.57037C7.14048 23 6.79199 23.3485 6.79199 23.7784V25.2216C6.79199 25.6515 7.14048 26 7.57037 26H9.01361Z" fill="white" stroke="#00AA5B" stroke-width="0.0648649"/>
<path id="&#232;&#183;&#175;&#229;&#190;&#132;_50" fill-rule="evenodd" clip-rule="evenodd" d="M9.01361 22C9.4435 22 9.79199 21.6515 9.79199 21.2216V19.7784C9.79199 19.3485 9.4435 19 9.01361 19H7.57037C7.14048 19 6.79199 19.3485 6.79199 19.7784V21.2216C6.79199 21.6515 7.14048 22 7.57037 22H9.01361Z" fill="white" stroke="#00AA5B" stroke-width="0.0648649"/>
<path id="&#232;&#183;&#175;&#229;&#190;&#132;_51" fill-rule="evenodd" clip-rule="evenodd" d="M9.01361 18C9.4435 18 9.79199 17.6515 9.79199 17.2216V15.7784C9.79199 15.3485 9.4435 15 9.01361 15H7.57037C7.14048 15 6.79199 15.3485 6.79199 15.7784V17.2216C6.79199 17.6515 7.14048 18 7.57037 18H9.01361Z" fill="white" stroke="#00AA5B" stroke-width="0.0648649"/>
<path id="&#232;&#183;&#175;&#229;&#190;&#132;_52" fill-rule="evenodd" clip-rule="evenodd" d="M13.0136 38C13.4435 38 13.792 37.6515 13.792 37.2216V35.7784C13.792 35.3485 13.4435 35 13.0136 35H11.5704C11.1405 35 10.792 35.3485 10.792 35.7784V37.2216C10.792 37.6515 11.1405 38 11.5704 38H13.0136Z" fill="white" stroke="#00AA5B" stroke-width="0.0648649"/>
<path id="&#232;&#183;&#175;&#229;&#190;&#132;_53" fill-rule="evenodd" clip-rule="evenodd" d="M41.0136 34C41.4435 34 41.792 33.6515 41.792 33.2216V31.7784C41.792 31.3485 41.4435 31 41.0136 31H39.5704C39.1405 31 38.792 31.3485 38.792 31.7784V33.2216C38.792 33.6515 39.1405 34 39.5704 34H41.0136Z" fill="white" stroke="#00AA5B" stroke-width="0.0648649"/>
<path id="&#232;&#183;&#175;&#229;&#190;&#132;_54" fill-rule="evenodd" clip-rule="evenodd" d="M41.0136 30C41.4435 30 41.792 29.6515 41.792 29.2216V27.7784C41.792 27.3485 41.4435 27 41.0136 27H39.5704C39.1405 27 38.792 27.3485 38.792 27.7784V29.2216C38.792 29.6515 39.1405 30 39.5704 30H41.0136Z" fill="white" stroke="#00AA5B" stroke-width="0.0648649"/>
<path id="&#232;&#183;&#175;&#229;&#190;&#132;_55" fill-rule="evenodd" clip-rule="evenodd" d="M41.0136 26C41.4435 26 41.792 25.6515 41.792 25.2216V23.7784C41.792 23.3485 41.4435 23 41.0136 23H39.5704C39.1405 23 38.792 23.3485 38.792 23.7784V25.2216C38.792 25.6515 39.1405 26 39.5704 26H41.0136Z" fill="white" stroke="#00AA5B" stroke-width="0.0648649"/>
<path id="&#232;&#183;&#175;&#229;&#190;&#132;_56" fill-rule="evenodd" clip-rule="evenodd" d="M41.0136 22C41.4435 22 41.792 21.6515 41.792 21.2216V19.7784C41.792 19.3485 41.4435 19 41.0136 19H39.5704C39.1405 19 38.792 19.3485 38.792 19.7784V21.2216C38.792 21.6515 39.1405 22 39.5704 22H41.0136Z" fill="white" stroke="#00AA5B" stroke-width="0.0648649"/>
<path id="&#232;&#183;&#175;&#229;&#190;&#132;_57" fill-rule="evenodd" clip-rule="evenodd" d="M41.0136 18C41.4435 18 41.792 17.6515 41.792 17.2216V15.7784C41.792 15.3485 41.4435 15 41.0136 15H39.5704C39.1405 15 38.792 15.3485 38.792 15.7784V17.2216C38.792 17.6515 39.1405 18 39.5704 18H41.0136Z" fill="white" stroke="#00AA5B" stroke-width="0.0648649"/>
</g>
</mask>
<g mask="url(#mask0_240_1428)">
<rect id="Rectangle 15771093" x="6.77148" y="6.97949" width="35" height="35" fill="url(#paint0_linear_240_1428)"/>
</g>
</g>
</g>
<g id="Group 7801">
<g id="Group 7798">
<path id="&#232;&#183;&#175;&#229;&#190;&#132;_58" fill-rule="evenodd" clip-rule="evenodd" d="M96.8 32.75C98.5673 32.75 100 31.3173 100 29.55V29.55C100 29.1082 99.6418 28.75 99.2 28.75H97C96.4477 28.75 96 29.1977 96 29.75V31.95C96 32.3918 96.3582 32.75 96.8 32.75V32.75Z" fill="#00AA5B"/>
<path id="&#232;&#183;&#175;&#229;&#190;&#132;_59" fill-rule="evenodd" clip-rule="evenodd" d="M99 28.25C99.5523 28.25 100 27.8023 100 27.25V25.25C100 24.6977 99.5523 24.25 99 24.25H97C96.4477 24.25 96 24.6977 96 25.25V27.25C96 27.8023 96.4477 28.25 97 28.25H99Z" fill="#00AA5B"/>
<path id="&#232;&#183;&#175;&#229;&#190;&#132;_60" fill-rule="evenodd" clip-rule="evenodd" d="M99 23.75C99.5523 23.75 100 23.3023 100 22.75V20.75C100 20.1977 99.5523 19.75 99 19.75H97C96.4477 19.75 96 20.1977 96 20.75V22.75C96 23.3023 96.4477 23.75 97 23.75H99Z" fill="#00AA5B"/>
<path id="&#232;&#183;&#175;&#229;&#190;&#132;_61" fill-rule="evenodd" clip-rule="evenodd" d="M99 19.25C99.5523 19.25 100 18.8023 100 18.25V16.05C100 15.6082 99.6418 15.25 99.2 15.25V15.25C97.4327 15.25 96 16.6827 96 18.45V18.45C96 18.8918 96.3582 19.25 96.8 19.25H99Z" fill="#00AA5B"/>
</g>
<g id="Group 7797">
<path id="&#232;&#183;&#175;&#229;&#190;&#132;_62" fill-rule="evenodd" clip-rule="evenodd" d="M81 32.75C81.5523 32.75 82 32.3023 82 31.75V29.75C82 29.1977 81.5523 28.75 81 28.75H79C78.4477 28.75 78 29.1977 78 29.75V31.75C78 32.3023 78.4477 32.75 79 32.75H81Z" fill="#00AA5B"/>
<path id="&#232;&#183;&#175;&#229;&#190;&#132;_63" fill-rule="evenodd" clip-rule="evenodd" d="M81 28.25C81.5523 28.25 82 27.8023 82 27.25V25.25C82 24.6977 81.5523 24.25 81 24.25H79C78.4477 24.25 78 24.6977 78 25.25V27.25C78 27.8023 78.4477 28.25 79 28.25H81Z" fill="#00AA5B"/>
<path id="&#232;&#183;&#175;&#229;&#190;&#132;_64" fill-rule="evenodd" clip-rule="evenodd" d="M81 23.75C81.5523 23.75 82 23.3023 82 22.75V20.75C82 20.1977 81.5523 19.75 81 19.75H79C78.4477 19.75 78 20.1977 78 20.75V22.75C78 23.3023 78.4477 23.75 79 23.75H81Z" fill="#00AA5B"/>
<path id="&#232;&#183;&#175;&#229;&#190;&#132;_65" fill-rule="evenodd" clip-rule="evenodd" d="M85.5 19.25C86.0523 19.25 86.5 18.8023 86.5 18.25V16.25C86.5 15.6977 86.0523 15.25 85.5 15.25H83.5C82.9477 15.25 82.5 15.6977 82.5 16.25V18.25C82.5 18.8023 82.9477 19.25 83.5 19.25H85.5Z" fill="#00AA5B"/>
<path id="&#232;&#183;&#175;&#229;&#190;&#132;_66" fill-rule="evenodd" clip-rule="evenodd" d="M81 19.25C81.5523 19.25 82 18.8023 82 18.25V16.05C82 15.6082 81.6418 15.25 81.2 15.25V15.25C79.4327 15.25 78 16.6827 78 18.45V18.45C78 18.8918 78.3582 19.25 78.8 19.25H81Z" fill="#00AA5B"/>
<path id="&#232;&#183;&#175;&#229;&#190;&#132;_67" fill-rule="evenodd" clip-rule="evenodd" d="M90 23.75C90.5523 23.75 91 23.3023 91 22.75V20.75C91 20.1977 90.5523 19.75 90 19.75H88C87.4477 19.75 87 20.1977 87 20.75V22.75C87 23.3023 87.4477 23.75 88 23.75H90Z" fill="#00AA5B"/>
<path id="&#232;&#183;&#175;&#229;&#190;&#132;_68" fill-rule="evenodd" clip-rule="evenodd" d="M90 28.25C90.5523 28.25 91 27.8023 91 27.25V25.25C91 24.6977 90.5523 24.25 90 24.25H88C87.4477 24.25 87 24.6977 87 25.25V27.25C87 27.8023 87.4477 28.25 88 28.25H90Z" fill="#00AA5B"/>
<path id="&#232;&#183;&#175;&#229;&#190;&#132;_69" fill-rule="evenodd" clip-rule="evenodd" d="M87.8 32.75C89.5673 32.75 91 31.3173 91 29.55V29.55C91 29.1082 90.6418 28.75 90.2 28.75H88C87.4477 28.75 87 29.1977 87 29.75V31.95C87 32.3918 87.3582 32.75 87.8 32.75V32.75Z" fill="#00AA5B"/>
<path id="&#232;&#183;&#175;&#229;&#190;&#132;_70" fill-rule="evenodd" clip-rule="evenodd" d="M85.5 32.75C86.0523 32.75 86.5 32.3023 86.5 31.75V29.75C86.5 29.1977 86.0523 28.75 85.5 28.75H83.5C82.9477 28.75 82.5 29.1977 82.5 29.75V31.75C82.5 32.3023 82.9477 32.75 83.5 32.75H85.5Z" fill="#00AA5B"/>
</g>
<g id="Group 7799">
<path id="&#232;&#183;&#175;&#229;&#190;&#132;_71" fill-rule="evenodd" clip-rule="evenodd" d="M107 32.75C107.552 32.75 108 32.3023 108 31.75V29.75C108 29.1977 107.552 28.75 107 28.75H105C104.448 28.75 104 29.1977 104 29.75V31.75C104 32.3023 104.448 32.75 105 32.75H107Z" fill="#00AA5B"/>
<path id="&#232;&#183;&#175;&#229;&#190;&#132;_72" fill-rule="evenodd" clip-rule="evenodd" d="M107 28.25C107.552 28.25 108 27.8023 108 27.25V25.25C108 24.6977 107.552 24.25 107 24.25H105C104.448 24.25 104 24.6977 104 25.25V27.25C104 27.8023 104.448 28.25 105 28.25H107Z" fill="#00AA5B"/>
<path id="&#232;&#183;&#175;&#229;&#190;&#132;_73" fill-rule="evenodd" clip-rule="evenodd" d="M107 23.75C107.552 23.75 108 23.3023 108 22.75V20.75C108 20.1977 107.552 19.75 107 19.75H105C104.448 19.75 104 20.1977 104 20.75V22.75C104 23.3023 104.448 23.75 105 23.75H107Z" fill="#00AA5B"/>
<path id="&#232;&#183;&#175;&#229;&#190;&#132;_74" fill-rule="evenodd" clip-rule="evenodd" d="M111.5 19.25C112.052 19.25 112.5 18.8023 112.5 18.25V16.25C112.5 15.6977 112.052 15.25 111.5 15.25H109.5C108.948 15.25 108.5 15.6977 108.5 16.25V18.25C108.5 18.8023 108.948 19.25 109.5 19.25H111.5Z" fill="#00AA5B"/>
<path id="&#232;&#183;&#175;&#229;&#190;&#132;_75" fill-rule="evenodd" clip-rule="evenodd" d="M107 19.25C107.552 19.25 108 18.8023 108 18.25V16.05C108 15.6082 107.642 15.25 107.2 15.25V15.25C105.433 15.25 104 16.6827 104 18.45V18.45C104 18.8918 104.358 19.25 104.8 19.25H107Z" fill="#00AA5B"/>
<path id="&#232;&#183;&#175;&#229;&#190;&#132;_76" fill-rule="evenodd" clip-rule="evenodd" d="M116 23.75C116.552 23.75 117 23.3023 117 22.75V20.75C117 20.1977 116.552 19.75 116 19.75H114C113.448 19.75 113 20.1977 113 20.75V22.75C113 23.3023 113.448 23.75 114 23.75H116Z" fill="#00AA5B"/>
<path id="&#232;&#183;&#175;&#229;&#190;&#132;_77" fill-rule="evenodd" clip-rule="evenodd" d="M116 28.25C116.552 28.25 117 27.8023 117 27.25V25.25C117 24.6977 116.552 24.25 116 24.25H114C113.448 24.25 113 24.6977 113 25.25V27.25C113 27.8023 113.448 28.25 114 28.25H116Z" fill="#00AA5B"/>
<path id="&#232;&#183;&#175;&#229;&#190;&#132;_78" fill-rule="evenodd" clip-rule="evenodd" d="M113.8 32.75C115.567 32.75 117 31.3173 117 29.55V29.55C117 29.1082 116.642 28.75 116.2 28.75H114C113.448 28.75 113 29.1977 113 29.75V31.95C113 32.3918 113.358 32.75 113.8 32.75V32.75Z" fill="#00AA5B"/>
<path id="&#232;&#183;&#175;&#229;&#190;&#132;_79" fill-rule="evenodd" clip-rule="evenodd" d="M111.5 32.75C112.052 32.75 112.5 32.3023 112.5 31.75V29.75C112.5 29.1977 112.052 28.75 111.5 28.75H109.5C108.948 28.75 108.5 29.1977 108.5 29.75V31.75C108.5 32.3023 108.948 32.75 109.5 32.75H111.5Z" fill="#00AA5B"/>
</g>
<g id="Group 7796">
<path id="&#232;&#183;&#175;&#229;&#190;&#132;_80" fill-rule="evenodd" clip-rule="evenodd" d="M63 23.75C63.5523 23.75 64 23.3023 64 22.75V20.75C64 20.1977 63.5523 19.75 63 19.75H61C60.4477 19.75 60 20.1977 60 20.75V22.75C60 23.3023 60.4477 23.75 61 23.75H63Z" fill="#00AA5B"/>
<path id="&#232;&#183;&#175;&#229;&#190;&#132;_81" fill-rule="evenodd" clip-rule="evenodd" d="M63 28.25C63.5523 28.25 64 27.8023 64 27.25V25.25C64 24.6977 63.5523 24.25 63 24.25H61C60.4477 24.25 60 24.6977 60 25.25V27.25C60 27.8023 60.4477 28.25 61 28.25H63Z" fill="#00AA5B"/>
<path id="&#232;&#183;&#175;&#229;&#190;&#132;_82" fill-rule="evenodd" clip-rule="evenodd" d="M63.2 32.75C63.6418 32.75 64 32.3918 64 31.95V29.75C64 29.1977 63.5523 28.75 63 28.75H60.8C60.3582 28.75 60 29.1082 60 29.55V29.55C60 31.3173 61.4327 32.75 63.2 32.75V32.75Z" fill="#00AA5B"/>
<path id="&#232;&#183;&#175;&#229;&#190;&#132;_83" fill-rule="evenodd" clip-rule="evenodd" d="M67.5 32.75C68.0523 32.75 68.5 32.3023 68.5 31.75V29.75C68.5 29.1977 68.0523 28.75 67.5 28.75H65.5C64.9477 28.75 64.5 29.1977 64.5 29.75V31.75C64.5 32.3023 64.9477 32.75 65.5 32.75H67.5Z" fill="#00AA5B"/>
<path id="&#232;&#183;&#175;&#229;&#190;&#132;_84" fill-rule="evenodd" clip-rule="evenodd" d="M69.8 32.75C71.5673 32.75 73 31.3173 73 29.55V29.55C73 29.1082 72.6418 28.75 72.2 28.75H70C69.4477 28.75 69 29.1977 69 29.75V31.95C69 32.3919 69.3582 32.75 69.8 32.75V32.75Z" fill="#00AA5B"/>
<path id="&#232;&#183;&#175;&#229;&#190;&#132;_85" fill-rule="evenodd" clip-rule="evenodd" d="M72 28.25C72.5523 28.25 73 27.8023 73 27.25V25.25C73 24.6977 72.5523 24.25 72 24.25H70C69.4477 24.25 69 24.6977 69 25.25V27.25C69 27.8023 69.4477 28.25 70 28.25H72Z" fill="#00AA5B"/>
<path id="&#232;&#183;&#175;&#229;&#190;&#132;_86" fill-rule="evenodd" clip-rule="evenodd" d="M72 23.75C72.5523 23.75 73 23.3023 73 22.75V20.75C73 20.1977 72.5523 19.75 72 19.75H70C69.4477 19.75 69 20.1977 69 20.75V22.75C69 23.3023 69.4477 23.75 70 23.75H72Z" fill="#00AA5B"/>
<path id="&#232;&#183;&#175;&#229;&#190;&#132;_87" fill-rule="evenodd" clip-rule="evenodd" d="M63 19.25C63.5523 19.25 64 18.8023 64 18.25V16.05C64 15.6082 63.6418 15.25 63.2 15.25V15.25C61.4327 15.25 60 16.6827 60 18.45V18.45C60 18.8918 60.3582 19.25 60.8 19.25H63Z" fill="#00AA5B"/>
<path id="&#232;&#183;&#175;&#229;&#190;&#132;_88" fill-rule="evenodd" clip-rule="evenodd" d="M72 19.25C72.5523 19.25 73 18.8023 73 18.25V16.05C73 15.6082 72.6418 15.25 72.2 15.25V15.25C70.4327 15.25 69 16.6827 69 18.45V18.45C69 18.8918 69.3582 19.25 69.8 19.25H72Z" fill="#00AA5B"/>
</g>
</g>
</g>
</g>
<defs>
<filter id="filter0_d_240_1428" x="6.51202" y="6.97949" width="35.5189" height="35.5189" filterUnits="userSpaceOnUse" color-interpolation-filters="sRGB">
<feFlood flood-opacity="0" result="BackgroundImageFix"/>
<feColorMatrix in="SourceAlpha" type="matrix" values="0 0 0 0 0 0 0 0 0 0 0 0 0 0 0 0 0 0 127 0" result="hardAlpha"/>
<feOffset dy="0.259459"/>
<feGaussianBlur stdDeviation="0.12973"/>
<feComposite in2="hardAlpha" operator="out"/>
<feColorMatrix type="matrix" values="0 0 0 0 0.139757 0 0 0 0 0.670833 0 0 0 0 0.251283 0 0 0 1 0"/>
<feBlend mode="normal" in2="BackgroundImageFix" result="effect1_dropShadow_240_1428"/>
<feBlend mode="normal" in="SourceGraphic" in2="effect1_dropShadow_240_1428" result="shape"/>
</filter>
<linearGradient id="paint0_linear_240_1428" x1="35.9382" y1="36.5107" x2="11.8757" y2="12.4482" gradientUnits="userSpaceOnUse">
<stop stop-color="#008C3D"/>
<stop offset="1" stop-color="#0AC846"/>
</linearGradient>
</defs>
</svg>
